<?xml version="1.0" encoding="UTF-8"?><svg id="c" xmlns="http://www.w3.org/2000/svg" viewBox="0 0 876.5 126.5"><path d="M446.9,69.29v-6.25c.01-8.85-1.77-17.1-5.32-24.74-3.48-7.41-8.4-14-14.75-19.75-6.06-5.6-13.17-9.91-21.34-12.94-8.17-3.03-16.57-4.54-25.2-4.54s-17.1,1.55-25.2,4.65c-8.1,2.95-15.21,7.23-21.34,12.83-6.2,5.6-11.08,12.18-14.64,19.75-3.56,7.64-5.33,15.89-5.33,24.74,0,11.73,3.06,22.36,9.19,31.89,6.05,9.38,14.22,16.8,24.52,22.24,10.29,5.37,21.22,8.06,32.8,8.06,8.78,0,17.18-1.55,25.2-4.65,1.13-.38,2.91-1.1,5.33-2.16v6.93h35.98l.1-56.06ZM401.62,83.8c-5.98,5.75-13.09,8.63-21.34,8.63s-15.25-2.87-21.22-8.63c-6.06-5.83-9.08-12.75-9.08-20.77,0-5.3,1.4-10.18,4.2-14.64,2.8-4.46,6.54-8.02,11.24-10.67,4.69-2.57,9.65-3.86,14.87-3.86s10.37,1.29,14.98,3.86c4.69,2.65,8.44,6.21,11.24,10.67,2.8,4.47,4.2,9.35,4.2,14.64,0,8.02-3.03,14.94-9.08,20.77Z"/><path d="M223.77,115.92c7.74,5.4,17.97,8.53,30.64,9.42h4.7c32.56-2.2,48.87-19.51,48.87-51.98V5.72h-36.32v67.64c0,12.48-4.62,18.88-13.85,19.18h-2.04c-8.55-.3-13.13-5.79-13.73-16.46V5.72h-36.43v70.37c-.61,10.67-5.18,16.16-13.73,16.46h-2.04c-9.23-.3-13.85-6.7-13.85-19.18V5.72h-36.32v67.64c0,32.48,16.31,49.78,48.87,51.98h4.7c12.67-.89,22.86-4.02,30.53-9.42Z"/><path d="M92.12,120.92c7.87-2.95,15.02-7.3,21.45-13.05,6.36-5.83,11.27-12.52,14.75-20.09,3.48-7.49,5.22-15.74,5.22-24.74s-1.78-17.1-5.33-24.74c-3.48-7.57-8.36-14.22-14.64-19.98-6.36-5.75-13.51-10.06-21.45-12.94-8.17-3.03-16.57-4.54-25.2-4.54s-16.91,1.51-25.08,4.54c-8.02,3.03-15.17,7.38-21.45,13.05-6.21,5.6-11.09,12.22-14.64,19.86C2.19,45.94.42,54.18.42,63.04c0,11.8,3.06,22.47,9.19,32.01,6.05,9.46,14.22,16.91,24.52,22.36,8.68,4.59,17.82,7.23,27.41,7.95h10.96c6.82-.52,13.37-1.99,19.63-4.43ZM36.62,63.04c0-5.3,1.4-10.18,4.2-14.64,2.8-4.46,6.54-8.02,11.24-10.67,4.69-2.65,9.65-3.97,14.87-3.97s10.36,1.33,14.98,3.97c4.69,2.65,8.43,6.21,11.24,10.67,2.8,4.47,4.2,9.35,4.2,14.64,0,8.1-3.03,15.06-9.08,20.88-5.98,5.83-13.09,8.74-21.34,8.74s-15.25-2.91-21.22-8.74c-6.06-5.83-9.08-12.79-9.08-20.88Z"/><path d="M72.49,125.35h-10.96c1.78.13,3.58.22,5.39.22s3.73-.09,5.57-.22Z"/><path d="M696.36,5.25h-52.86v31.62h52.86c8.51,0,15.41-7.08,15.41-15.81s-6.9-15.81-15.41-15.81Z" fill="#46dca6"/><path d="M815.25,92.97h-171.75v33.74h171.75c9.08,0,16.44-7.55,16.44-16.87s-7.36-16.87-16.44-16.87Z" fill="#46dca6"/><ellipse cx="859.6" cy="109.29" rx="16.12" ry="16.54" fill="#46dca6"/><path d="M755.91,47.12l-112.42.12v33.01h112.43c8.82,0,15.97-7.34,15.97-16.39v-.35c0-9.06-7.16-16.4-15.99-16.39Z" fill="#46dca6"/><path d="M452.37,125.67h36.12V54.38c0-9.67,7.84-17.5,17.5-17.5h27.21v46.2c0,23.95,19.41,43.36,43.36,43.36h15.65c23.95,0,43.36-19.41,43.36-43.36V5.4h-36.32v72.43c0,8.11-6.49,14.72-14.6,14.87h0c-8.32.15-15.14-6.55-15.14-14.87V5.4h-72.39c-24.72,0-44.77,20.04-44.77,44.77v75.5Z"/></svg>