<?xml version="1.0" encoding="UTF-8"?><svg id="j" xmlns="http://www.w3.org/2000/svg" viewBox="0 0 486 489"><path d="M485.88,105.45v277.66c0,58.27-47.28,105.51-105.6,105.51H105.86C47.54,488.62.26,441.38.26,383.11V105.45C.26,47.18,47.54-.06,105.86-.06h274.41c58.32,0,105.6,47.24,105.6,105.51Z"/><path d="M144.78,148.4H59.77v49.56h85.01c13.68,0,24.78-11.09,24.78-24.78s-11.09-24.78-24.78-24.78Z" fill="#fff"/><path d="M335.97,285.88H59.77v52.88h276.2c14.6,0,26.44-11.84,26.44-26.44s-11.84-26.44-26.44-26.44Z" fill="#fff"/><circle cx="407.29" cy="311.45" r="25.91" fill="#fff"/><path d="M240.55,214.02l-180.77.2v51.74h180.8c14.19,0,25.69-11.5,25.69-25.69v-.56c0-14.2-11.52-25.7-25.72-25.69Z" fill="#fff"/></svg>