<?xml version="1.0" encoding="UTF-8"?><svg id="i" xmlns="http://www.w3.org/2000/svg" viewBox="0 0 486 493"><path d="M485.88,109.45v277.66c0,58.27-47.28,105.51-105.6,105.51H105.86C47.54,492.62.26,445.38.26,387.11V109.45C.26,51.18,47.54,3.94,105.86,3.94h274.41c58.32,0,105.6,47.24,105.6,105.51Z"/><path d="M144.78,152.4H59.77v49.56h85.01c13.68,0,24.78-11.09,24.78-24.78s-11.09-24.78-24.78-24.78Z" fill="#46dca6"/><path d="M335.97,289.88H59.77v52.88h276.2c14.6,0,26.44-11.84,26.44-26.44s-11.84-26.44-26.44-26.44Z" fill="#46dca6"/><circle cx="407.29" cy="315.45" r="25.91" fill="#46dca6"/><path d="M240.55,218.02l-180.77.2v51.74h180.8c14.19,0,25.69-11.5,25.69-25.69v-.56c0-14.2-11.52-25.7-25.72-25.69Z" fill="#46dca6"/></svg>